<svg width="48" height="48" viewBox="0 0 48 48" fill="none" xmlns="http://www.w3.org/2000/svg">
<g clip-path="url(#clip0_28_54)">
<rect width="48" height="48" rx="6" fill="#F4F2ED"/>
<path d="M42.75 34.3007C42.2042 34.5075 41.6015 34.5071 41.0559 34.2997C40.5103 34.0922 40.0597 33.692 39.7892 33.1748C38.0899 30.631 36.2134 28.2019 34.4098 25.7207L33.6278 24.6782C31.4801 27.5556 29.3325 30.3182 27.3726 33.1853C27.1173 33.6796 26.691 34.0642 26.1732 34.2675C25.6553 34.4708 25.0812 34.479 24.5578 34.2904L32.6166 23.4793L25.1207 13.7106C25.6603 13.5158 26.2506 13.5131 26.7919 13.703C27.3332 13.893 27.7924 14.2638 28.092 14.7531C29.8329 17.2971 31.7618 19.7261 33.6799 22.3013C35.6087 19.747 37.5165 17.3074 39.2992 14.7844C39.5559 14.2981 39.9824 13.9231 40.4976 13.7308C41.0128 13.5386 41.5807 13.5425 42.0932 13.7419L39.1845 17.5993C37.8814 19.3195 36.5991 21.0501 35.2438 22.7286C35.1346 22.8264 35.0472 22.9461 34.9874 23.0799C34.9276 23.2138 34.8967 23.3587 34.8967 23.5053C34.8967 23.6519 34.9276 23.7968 34.9874 23.9307C35.0472 24.0645 35.1346 24.1842 35.2438 24.282C37.7355 27.5869 40.2062 30.9021 42.75 34.3007ZM5.25 23.3438C5.469 22.3013 5.60438 21.1648 5.90681 20.1015C7.71038 13.69 15.0602 11.0209 20.1165 14.9931C23.0773 17.3181 23.8176 20.6125 23.6717 24.3238H6.99112C6.72 30.9544 11.5052 34.9577 17.6248 32.9143C18.6175 32.5593 19.5062 31.9625 20.2106 31.178C20.915 30.3936 21.4129 29.446 21.6594 28.4209C21.9827 27.3784 22.5039 27.2012 23.4943 27.5035C23.3312 28.7726 22.8824 29.9883 22.1818 31.0591C21.4812 32.1299 20.547 33.0279 19.4494 33.6857C17.6358 34.6776 15.5551 35.0706 13.5047 34.8085C11.4543 34.5463 9.53928 33.6425 8.03363 32.2262C6.54403 30.5513 5.64334 28.435 5.469 26.2003C5.469 25.846 5.33344 25.4914 5.2605 25.1578C5.2536 24.5532 5.2501 23.9485 5.25 23.3438ZM7.01194 22.8955H22.0974C22.0035 18.0895 18.9697 14.6803 14.9248 14.6492C10.4211 14.5866 7.19962 17.9226 7.00144 22.8746L7.01194 22.8955Z" fill="#0F0F0F"/>
</g>
<defs>
<clipPath id="clip0_28_54">
<rect width="48" height="48" fill="white"/>
</clipPath>
</defs>
</svg>
