<svg width="48" height="48" viewBox="0 0 48 48" fill="none" xmlns="http://www.w3.org/2000/svg">
<g clip-path="url(#clip0_28_58)">
<rect width="48" height="48" rx="6" fill="#007ACC"/>
<path d="M10.6146 24.1592L10.5994 26.1249H16.8469V43.8772H21.2661V26.1249H27.5136V24.1972C27.5136 23.1306 27.4909 22.2392 27.4603 22.2163C27.4374 22.1859 23.6355 22.1706 19.026 22.1782L10.6374 22.2011L10.6146 24.1592ZM38.7313 22.1452C39.9503 22.4501 40.8799 22.9911 41.7332 23.8747C42.1751 24.3472 42.8303 25.2082 42.8837 25.4139C42.8989 25.4749 40.8113 26.8768 39.5466 27.6615C39.5008 27.6921 39.3178 27.4939 39.1121 27.1892C38.4951 26.2901 37.8474 25.9014 36.8569 25.833C35.4017 25.7338 34.4646 26.4958 34.4723 27.7682C34.4723 28.1415 34.5255 28.3624 34.6779 28.6672C34.9978 29.3301 35.5922 29.7262 37.4589 30.5338C40.8951 32.0121 42.3654 32.9872 43.2799 34.3738C44.3008 35.9205 44.5294 38.3891 43.836 40.2253C43.0742 42.2214 41.1846 43.5776 38.5254 44.0272C37.7027 44.172 35.7521 44.1491 34.8684 43.9892C32.9408 43.6462 31.1123 42.6939 29.9846 41.4444C29.5427 40.9567 28.6817 39.6844 28.7351 39.5929C28.7578 39.5625 28.956 39.4406 29.1769 39.311C29.3903 39.1892 30.198 38.7244 30.9598 38.2824L32.3389 37.4824L32.6284 37.9091C33.0323 38.5262 33.9159 39.372 34.4494 39.6538C35.9807 40.4615 38.0837 40.3472 39.1198 39.4177C39.5618 39.0139 39.7446 38.5948 39.7446 37.9777C39.7446 37.4214 39.6759 37.1777 39.3864 36.7586C39.0131 36.2254 38.2513 35.7757 36.0874 34.8386C33.6113 33.7719 32.5446 33.1091 31.5694 32.0576C31.0056 31.4482 30.4721 30.4729 30.2513 29.6576C30.0684 28.9796 30.0227 27.2805 30.1674 26.5948C30.6778 24.2025 32.4836 22.5339 35.0893 22.0386C35.9351 21.8786 37.9007 21.9396 38.7313 22.1452Z" fill="white"/>
</g>
<defs>
<clipPath id="clip0_28_58">
<rect width="48" height="48" fill="white"/>
</clipPath>
</defs>
</svg>
